<svg width="109" height="22" viewBox="0 0 109 22" fill="none" xmlns="http://www.w3.org/2000/svg">
<path d="M0.818359 1.15723H17.7158V4.68652H4.84277V8.64746H16.2432V11.9609H4.84277V17.4834H17.9824V21H0.818359V1.15723ZM21.2451 10.958C21.2451 9.5446 21.5117 8.22852 22.0449 7.00977C22.5781 5.78255 23.3483 4.72038 24.3555 3.82324C25.3711 2.91764 26.6068 2.20671 28.0625 1.69043C29.5267 1.17415 31.1813 0.916016 33.0264 0.916016C34.6429 0.916016 36.124 1.08105 37.4697 1.41113C38.8239 1.73275 40.0807 2.22786 41.2402 2.89648L39.3867 5.94336C39.0397 5.71484 38.6377 5.51172 38.1807 5.33398C37.7321 5.15625 37.2497 5.00814 36.7334 4.88965C36.2256 4.7627 35.6966 4.66536 35.1465 4.59766C34.6048 4.52995 34.0674 4.49609 33.5342 4.49609C32.2477 4.49609 31.1009 4.6569 30.0938 4.97852C29.0866 5.29167 28.236 5.736 27.542 6.31152C26.8564 6.87858 26.3317 7.5599 25.9678 8.35547C25.6123 9.14258 25.4346 10.0101 25.4346 10.958C25.4346 11.9398 25.6208 12.8411 25.9932 13.6621C26.3656 14.4831 26.903 15.194 27.6055 15.7949C28.3164 16.3874 29.1797 16.8529 30.1953 17.1914C31.2194 17.5215 32.3747 17.6865 33.6611 17.6865C34.2451 17.6865 34.8249 17.6442 35.4004 17.5596C35.9759 17.4749 36.5303 17.3607 37.0635 17.2168C37.6051 17.0645 38.1257 16.8867 38.625 16.6836C39.1243 16.472 39.5898 16.2435 40.0215 15.998L41.875 19.0449C40.7917 19.7389 39.5391 20.2848 38.1172 20.6826C36.6953 21.0719 35.1846 21.2666 33.585 21.2666C31.5452 21.2666 29.7552 21.0042 28.2148 20.4795C26.6745 19.9463 25.388 19.2184 24.3555 18.2959C23.3229 17.3649 22.5443 16.2731 22.0195 15.0205C21.5033 13.7594 21.2451 12.4053 21.2451 10.958ZM45.1504 11.0215C45.1504 9.52344 45.4255 8.15234 45.9756 6.9082C46.5257 5.66406 47.2959 4.59766 48.2861 3.70898C49.2848 2.81185 50.4782 2.11784 51.8662 1.62695C53.2627 1.13607 54.8073 0.890625 56.5 0.890625C58.1842 0.890625 59.7246 1.13607 61.1211 1.62695C62.5176 2.11784 63.7109 2.81185 64.7012 3.70898C65.6999 4.59766 66.4743 5.66406 67.0244 6.9082C67.5745 8.15234 67.8496 9.52344 67.8496 11.0215C67.8496 12.528 67.5745 13.9118 67.0244 15.1729C66.4743 16.4255 65.6999 17.5046 64.7012 18.4102C63.7109 19.3158 62.5176 20.0225 61.1211 20.5303C59.7246 21.0296 58.1842 21.2793 56.5 21.2793C54.8073 21.2793 53.2627 21.0296 51.8662 20.5303C50.4782 20.0225 49.2848 19.3158 48.2861 18.4102C47.2959 17.5046 46.5257 16.4255 45.9756 15.1729C45.4255 13.9118 45.1504 12.528 45.1504 11.0215ZM49.1748 11.0215C49.1748 12.0456 49.3568 12.9681 49.7207 13.7891C50.0931 14.61 50.6051 15.3125 51.2568 15.8965C51.917 16.472 52.6914 16.9163 53.5801 17.2295C54.4772 17.5426 55.4505 17.6992 56.5 17.6992C57.5495 17.6992 58.5186 17.5426 59.4072 17.2295C60.3044 16.9163 61.0788 16.472 61.7305 15.8965C62.3822 15.3125 62.8942 14.61 63.2666 13.7891C63.639 12.9681 63.8252 12.0456 63.8252 11.0215C63.8252 9.9974 63.639 9.0791 63.2666 8.2666C62.8942 7.4541 62.3822 6.76855 61.7305 6.20996C61.0788 5.6429 60.3044 5.21126 59.4072 4.91504C58.5186 4.61882 57.5495 4.4707 56.5 4.4707C55.4505 4.4707 54.4772 4.61882 53.5801 4.91504C52.6914 5.21126 51.917 5.6429 51.2568 6.20996C50.6051 6.76855 50.0931 7.4541 49.7207 8.2666C49.3568 9.0791 49.1748 9.9974 49.1748 11.0215ZM72.3184 1.15723H76.3428V17.4707H87.8828V21H72.3184V1.15723ZM91.793 1.15723H108.69V4.68652H95.8174V8.64746H107.218V11.9609H95.8174V17.4834H108.957V21H91.793V1.15723Z" fill="black"/>
</svg>