<svg width="54" height="17" viewBox="0 0 54 17" fill="none" xmlns="http://www.w3.org/2000/svg">
<path d="M0.167969 0.736328H8.21484C9.38672 0.736328 10.4023 0.863281 11.2617 1.11719C12.1211 1.37109 12.834 1.73893 13.4004 2.2207C13.9668 2.69596 14.3867 3.27865 14.6602 3.96875C14.9401 4.65885 15.0801 5.43685 15.0801 6.30273C15.0801 7.11654 14.9434 7.86849 14.6699 8.55859C14.3965 9.2487 13.9766 9.84766 13.4102 10.3555C12.8503 10.8568 12.1406 11.2507 11.2812 11.5371C10.4219 11.8171 9.40625 11.957 8.23438 11.957L3.26367 11.9473V16H0.167969V0.736328ZM8.29297 9.27148C8.87891 9.27148 9.38997 9.20312 9.82617 9.06641C10.2689 8.92318 10.6367 8.72461 10.9297 8.4707C11.2292 8.21029 11.4505 7.89779 11.5938 7.5332C11.7435 7.16211 11.8184 6.75195 11.8184 6.30273C11.8184 5.39779 11.5221 4.69466 10.9297 4.19336C10.3438 3.68555 9.46484 3.43164 8.29297 3.43164H3.26367V9.27148H8.29297ZM18.4688 0.736328H26.2324C27.4043 0.736328 28.4199 0.860026 29.2793 1.10742C30.1387 1.34831 30.8516 1.69987 31.418 2.16211C31.9844 2.62435 32.4043 3.1875 32.6777 3.85156C32.9577 4.51562 33.0977 5.26758 33.0977 6.10742C33.0977 6.67383 33.0293 7.21419 32.8926 7.72852C32.7559 8.23633 32.5443 8.70508 32.2578 9.13477C31.9779 9.56445 31.623 9.94857 31.1934 10.2871C30.7637 10.6191 30.2591 10.8958 29.6797 11.1172L33 16H29.2109L26.3398 11.6641H26.252L21.5645 11.6543V16H18.4688V0.736328ZM26.3105 8.97852C26.8965 8.97852 27.4076 8.91016 27.8438 8.77344C28.2865 8.63672 28.6543 8.44466 28.9473 8.19727C29.2467 7.94987 29.4681 7.65039 29.6113 7.29883C29.7611 6.94076 29.8359 6.54362 29.8359 6.10742C29.8359 5.25456 29.543 4.59701 28.957 4.13477C28.3711 3.66602 27.4889 3.43164 26.3105 3.43164H21.5645V8.97852H26.3105ZM35.8711 8.32422C35.8711 7.17188 36.0827 6.11719 36.5059 5.16016C36.929 4.20312 37.5215 3.38281 38.2832 2.69922C39.0514 2.00911 39.9694 1.47526 41.0371 1.09766C42.1113 0.720052 43.2995 0.53125 44.6016 0.53125C45.8971 0.53125 47.082 0.720052 48.1562 1.09766C49.2305 1.47526 50.1484 2.00911 50.9102 2.69922C51.6784 3.38281 52.2741 4.20312 52.6973 5.16016C53.1204 6.11719 53.332 7.17188 53.332 8.32422C53.332 9.48307 53.1204 10.5475 52.6973 11.5176C52.2741 12.4811 51.6784 13.3112 50.9102 14.0078C50.1484 14.7044 49.2305 15.248 48.1562 15.6387C47.082 16.0228 45.8971 16.2148 44.6016 16.2148C43.2995 16.2148 42.1113 16.0228 41.0371 15.6387C39.9694 15.248 39.0514 14.7044 38.2832 14.0078C37.5215 13.3112 36.929 12.4811 36.5059 11.5176C36.0827 10.5475 35.8711 9.48307 35.8711 8.32422ZM38.9668 8.32422C38.9668 9.11198 39.1068 9.82161 39.3867 10.4531C39.6732 11.0846 40.0671 11.625 40.5684 12.0742C41.0762 12.5169 41.6719 12.8587 42.3555 13.0996C43.0456 13.3405 43.7943 13.4609 44.6016 13.4609C45.4089 13.4609 46.1543 13.3405 46.8379 13.0996C47.528 12.8587 48.1237 12.5169 48.625 12.0742C49.1263 11.625 49.5202 11.0846 49.8066 10.4531C50.0931 9.82161 50.2363 9.11198 50.2363 8.32422C50.2363 7.53646 50.0931 6.83008 49.8066 6.20508C49.5202 5.58008 49.1263 5.05273 48.625 4.62305C48.1237 4.18685 47.528 3.85482 46.8379 3.62695C46.1543 3.39909 45.4089 3.28516 44.6016 3.28516C43.7943 3.28516 43.0456 3.39909 42.3555 3.62695C41.6719 3.85482 41.0762 4.18685 40.5684 4.62305C40.0671 5.05273 39.6732 5.58008 39.3867 6.20508C39.1068 6.83008 38.9668 7.53646 38.9668 8.32422Z" fill="black"/>
</svg>
