<svg width="350" height="350" viewBox="0 0 350 350" fill="none" xmlns="http://www.w3.org/2000/svg">
<rect x="7.5" y="7.5" width="335" height="335" rx="35.5" fill="white" stroke="#373737" stroke-width="15"/>
<path d="M155.061 271.638C147.902 271.638 140.631 271.414 133.248 270.966C125.866 270.743 118.595 270.183 111.436 269.289C95.5527 267.946 87.6108 262.801 87.6108 253.852C87.6108 249.378 89.4005 244.009 92.98 237.745C101.481 222.309 110.206 206.984 119.154 191.772C128.103 176.336 136.94 160.899 145.665 145.463C148.349 140.541 151.817 134.389 156.067 127.007C160.318 119.624 164.568 112.577 168.819 105.866C170.832 102.734 173.741 99.6018 177.544 96.4698C181.347 93.1141 185.262 90.9888 189.289 90.094C184.591 90.3177 178.55 90.6533 171.168 91.1007C164.009 91.5481 156.627 92.443 149.02 93.7853C141.638 94.9038 134.926 96.8054 128.886 99.4899C123.069 101.951 118.931 105.418 116.47 109.893C115.575 111.906 114.792 113.919 114.121 115.933C113.45 117.946 113.114 119.96 113.114 121.973C113.114 127.119 114.904 130.81 118.483 133.047C118.707 133.047 118.819 133.271 118.819 133.718C118.819 134.166 118.371 134.613 117.477 135.06C116.805 135.508 116.134 135.62 115.463 135.396C113.45 134.277 110.989 131.593 108.081 127.342C105.172 122.868 103.383 119.177 102.712 116.268C102.04 113.584 101.705 111.123 101.705 108.886C101.705 103.069 103.606 98.5951 107.41 95.4631C111.213 92.1074 116.022 89.7584 121.839 88.4161C127.656 86.8501 133.584 85.9553 139.624 85.7316C145.665 85.2841 151.034 85.0604 155.732 85.0604C167.588 85.0604 179.445 84.9486 191.302 84.7249C203.159 84.2774 214.904 84.0537 226.537 84.0537C231.682 84.0537 236.716 84.0537 241.638 84.0537C246.783 84.0537 251.817 84.2774 256.738 84.7249C262.331 84.9486 266.134 86.0671 268.148 88.0806C270.385 90.094 271.503 92.5548 271.503 95.4631C271.503 99.0425 270.273 103.181 267.812 107.879C265.575 112.353 263.45 116.492 261.436 120.295C260.542 122.085 259.087 123.427 257.074 124.322C255.061 124.993 254.278 124.322 254.725 122.309C255.844 117.834 256.403 113.36 256.403 108.886C256.403 104.859 255.62 101.28 254.054 98.1477C252.712 94.792 250.027 92.443 246 91.1007C242.197 89.9821 236.269 89.4228 228.215 89.4228C225.307 89.4228 222.286 89.5347 219.154 89.7584C216.246 89.7584 213.226 89.8703 210.094 90.094C201.146 90.7651 195.105 93.1141 191.973 97.141C184.591 107.432 177.432 118.617 170.497 130.698C163.785 142.555 157.298 153.852 151.034 164.591C150.81 165.038 150.698 165.597 150.698 166.268C150.698 167.611 151.705 168.282 153.718 168.282C161.548 168.282 169.937 168.394 178.886 168.617C188.058 168.841 196.112 168.841 203.047 168.617C204.613 168.394 206.962 168.17 210.094 167.946C213.45 167.723 216.805 167.275 220.161 166.604C223.741 165.933 226.425 165.15 228.215 164.255C229.333 163.584 230.005 163.248 230.228 163.248C231.571 163.248 231.571 164.591 230.228 167.275C229.11 169.736 227.096 172.309 224.188 174.993C221.503 177.454 218.371 178.685 214.792 178.685C203.83 178.685 194.546 178.461 186.94 178.013C179.557 177.566 171.28 177.342 162.107 177.342C159.87 177.342 157.521 177.342 155.061 177.342C152.6 177.342 149.915 177.454 147.007 177.678C144.77 177.902 143.204 178.796 142.309 180.362C140.072 184.389 138.058 188.081 136.269 191.436C134.703 194.792 132.689 198.707 130.228 203.181C128.439 206.537 126.201 210.899 123.517 216.269C121.056 221.414 118.819 226.783 116.805 232.376C114.792 237.745 113.785 242.443 113.785 246.47C113.785 253.405 117.029 258.215 123.517 260.899C130.005 263.36 137.946 264.703 147.342 264.926C160.318 264.926 173.069 263.696 185.597 261.235C198.349 258.55 210.206 254.188 221.168 248.148C232.354 241.884 242.085 233.494 250.363 222.98C250.81 222.532 251.146 222.309 251.369 222.309C252.04 222.309 252.488 222.98 252.712 224.322C252.935 225.441 252.823 226.336 252.376 227.007C245.441 235.508 238.729 243.785 232.242 251.839C225.754 259.669 219.266 264.591 212.779 266.604C208.081 267.946 200.474 269.065 189.96 269.96C179.445 271.078 167.812 271.638 155.061 271.638Z" fill="#DD2E2E"/>
<path fill-rule="evenodd" clip-rule="evenodd" d="M147.343 264.926C142.389 264.808 137.839 264.379 133.693 263.639C133.619 263.626 133.546 263.613 133.472 263.6C132.122 263.354 130.814 263.075 129.55 262.763C127.416 262.237 125.405 261.615 123.517 260.899C117.03 258.215 113.786 253.405 113.786 246.47C113.786 242.443 114.793 237.745 116.806 232.376C118.819 226.783 121.057 221.414 123.517 216.268C126.202 210.899 128.439 206.537 130.229 203.181C132.69 198.707 134.703 194.792 136.269 191.436C138.059 188.081 140.072 184.389 142.309 180.362C143.204 178.796 144.77 177.902 147.007 177.678C149.916 177.454 152.6 177.342 155.061 177.342H162.108C171.28 177.342 179.558 177.566 186.94 178.013C194.546 178.461 203.831 178.685 214.793 178.685C218.372 178.685 221.504 177.454 224.189 174.993C224.67 174.548 225.128 174.107 225.561 173.668C226.482 172.734 227.292 171.813 227.991 170.907C228.807 169.849 229.471 168.81 229.983 167.79C230.037 167.681 230.09 167.573 230.141 167.465C230.171 167.401 230.2 167.338 230.229 167.275C231.571 164.591 231.571 163.248 230.229 163.248C230.005 163.248 229.334 163.584 228.215 164.255C227.586 164.57 226.845 164.871 225.994 165.158C225.914 165.185 225.832 165.212 225.749 165.239C225.039 165.471 224.256 165.693 223.399 165.907C222.743 166.07 222.045 166.228 221.303 166.38C220.933 166.456 220.553 166.531 220.162 166.604C216.806 167.275 213.45 167.723 210.095 167.946C206.963 168.17 204.614 168.394 203.048 168.617C196.112 168.841 188.059 168.841 178.886 168.617C171.622 168.436 164.725 168.328 158.198 168.294C157.923 168.292 157.649 168.291 157.376 168.29C156.143 168.285 154.924 168.282 153.719 168.282C151.705 168.282 150.699 167.611 150.699 166.268C150.699 165.597 150.81 165.038 151.034 164.591C157.298 153.852 163.786 142.555 170.497 130.698C177.432 118.617 184.591 107.432 191.974 97.1409C193.46 95.2295 195.602 93.6961 198.4 92.5408C201.495 91.2621 205.394 90.4465 210.095 90.094C213.227 89.8703 216.247 89.7584 219.155 89.7584C221.689 89.5774 224.15 89.4696 226.537 89.4351C227.101 89.4269 227.66 89.4228 228.215 89.4228C233.661 89.4228 238.136 89.6786 241.638 90.1901C243.315 90.435 244.769 90.7385 246.001 91.1007C246.979 91.4269 247.879 91.8126 248.699 92.2578C251.253 93.6442 253.038 95.6075 254.054 98.1477C255.62 101.28 256.403 104.859 256.403 108.886C256.403 110.199 256.355 111.512 256.259 112.826C256.168 114.057 256.036 115.289 255.86 116.521C255.824 116.775 255.786 117.029 255.747 117.283C255.739 117.335 255.73 117.386 255.722 117.438C255.624 118.054 255.515 118.67 255.396 119.287C255.34 119.575 255.282 119.864 255.221 120.152C255.07 120.871 254.905 121.59 254.725 122.309C254.278 124.322 255.061 124.993 257.074 124.322C257.714 124.038 258.298 123.708 258.824 123.333C258.865 123.305 258.905 123.276 258.945 123.246C260.018 122.456 260.848 121.473 261.437 120.295C261.509 120.159 261.582 120.021 261.654 119.884C262.466 118.347 263.295 116.757 264.143 115.113C265.331 112.808 266.554 110.397 267.813 107.879C270.274 103.181 271.504 99.0425 271.504 95.4631C271.504 92.5548 270.385 90.094 268.148 88.0805C266.135 86.0671 262.332 84.9486 256.739 84.7248C254.75 84.544 252.743 84.3997 250.717 84.292C249.916 84.2494 249.113 84.2125 248.307 84.1814C248.218 84.1779 248.128 84.1745 248.039 84.1712C245.925 84.0929 243.791 84.0537 241.638 84.0537H226.537C224.082 84.0537 221.621 84.0637 219.155 84.0836C219.02 84.0847 218.885 84.0858 218.75 84.087C215.732 84.1127 212.707 84.1534 209.674 84.209C209.667 84.2091 209.66 84.2092 209.653 84.2093C205.381 84.2877 201.094 84.3958 196.793 84.5334C194.965 84.5919 193.135 84.6557 191.303 84.7248C190.625 84.7376 189.947 84.7501 189.269 84.7621C189.191 84.7635 189.113 84.7649 189.035 84.7663C188.727 84.7717 188.418 84.7771 188.109 84.7824C185.476 84.8276 182.843 84.8673 180.21 84.9015C177.073 84.9422 173.936 84.9751 170.799 85.0002C170.795 85.0002 170.791 85.0003 170.787 85.0003C165.769 85.0404 160.75 85.0604 155.732 85.0604C154.581 85.0604 153.39 85.0738 152.158 85.1007C148.363 85.1835 144.185 85.3937 139.625 85.7315C133.584 85.9553 127.656 86.8501 121.839 88.4161C116.023 89.7584 111.213 92.1074 107.41 95.4631C103.607 98.5951 101.705 103.069 101.705 108.886C101.705 111.123 102.041 113.584 102.712 116.268C103.107 117.981 103.891 119.966 105.062 122.222C105.879 123.797 106.886 125.503 108.081 127.342C109.159 128.917 110.175 130.277 111.13 131.422C111.878 132.32 112.588 133.085 113.261 133.718C114.047 134.457 114.781 135.017 115.464 135.396C116.005 135.576 116.545 135.539 117.086 135.283C117.217 135.221 117.347 135.147 117.477 135.06C117.925 134.837 118.26 134.613 118.484 134.389C118.708 134.166 118.819 133.942 118.819 133.718C118.819 133.271 118.708 133.047 118.484 133.047C118.049 132.775 117.64 132.482 117.258 132.167C117.066 132.009 116.881 131.846 116.703 131.677C115.57 130.605 114.705 129.316 114.109 127.808C113.657 126.665 113.359 125.398 113.215 124.005C113.21 123.95 113.204 123.896 113.199 123.84C113.143 123.241 113.115 122.618 113.115 121.973C113.115 121.413 113.141 120.853 113.193 120.293C113.327 118.84 113.637 117.386 114.121 115.933C114.793 113.919 115.576 111.906 116.47 109.893C118.931 105.418 123.07 101.951 128.886 99.4899C134.927 96.8054 141.638 94.9038 149.021 93.7853C150.309 93.5579 151.591 93.3434 152.867 93.1417C153.825 92.9901 154.781 92.8457 155.732 92.7086C160.988 91.9513 166.134 91.4153 171.168 91.1007C171.257 91.0953 171.345 91.09 171.433 91.0847C171.868 91.0583 172.298 91.0324 172.724 91.0069C172.826 91.0007 172.928 90.9946 173.03 90.9885C178.651 90.652 183.443 90.3845 187.406 90.186C188.056 90.1535 188.684 90.1228 189.289 90.094C188.454 90.2795 187.625 90.5178 186.8 90.809C185.296 91.3396 183.809 92.0456 182.338 92.9272C180.721 93.8961 179.123 95.0769 177.544 96.4698C176.538 97.2986 175.594 98.1274 174.713 98.9562C172.265 101.259 170.3 103.563 168.819 105.866C164.569 112.577 160.318 119.624 156.068 127.007C151.817 134.389 148.35 140.541 145.665 145.463C136.94 160.899 128.103 176.336 119.155 191.772C110.206 206.984 101.482 222.309 92.9804 237.745C89.401 244.009 87.6113 249.378 87.6113 253.852C87.6113 262.801 95.5531 267.946 111.437 269.289C117.024 269.987 122.679 270.481 128.402 270.771C130.012 270.852 131.628 270.917 133.249 270.966C137.939 271.251 142.585 271.445 147.185 271.548C147.238 271.55 147.29 271.551 147.343 271.552C149.93 271.609 152.503 271.638 155.061 271.638C162.088 271.638 168.776 271.468 175.124 271.128C180.295 270.851 185.24 270.462 189.96 269.96C200.475 269.065 208.081 267.946 212.779 266.604C219.267 264.591 225.754 259.669 232.242 251.839C232.874 251.055 233.507 250.269 234.143 249.481C239.222 243.184 244.437 236.751 249.787 230.184C250.313 229.538 250.841 228.89 251.37 228.241C251.705 227.83 252.04 227.419 252.376 227.007C252.663 226.576 252.812 226.054 252.823 225.44C252.826 225.267 252.818 225.086 252.8 224.898C252.781 224.713 252.752 224.521 252.712 224.322C252.488 222.98 252.041 222.309 251.37 222.309C251.146 222.309 250.81 222.532 250.363 222.98C249.981 223.465 249.596 223.946 249.208 224.422C249.125 224.524 249.041 224.626 248.958 224.728C248.888 224.813 248.818 224.898 248.747 224.983C248.704 225.036 248.66 225.089 248.616 225.141C247.795 226.131 246.96 227.101 246.111 228.051C240.806 233.989 234.968 239.148 228.597 243.528C226.197 245.179 223.72 246.719 221.168 248.148C210.206 254.188 198.35 258.55 185.598 261.235C181.874 261.966 178.131 262.589 174.367 263.103C167.989 263.974 161.553 264.533 155.061 264.78C152.497 264.877 149.924 264.926 147.343 264.926ZM147.44 256.872C138.763 256.658 131.85 255.426 126.492 253.414C124.469 252.559 123.453 251.601 122.896 250.775C122.334 249.943 121.84 248.652 121.84 246.47C121.84 243.724 122.54 240.021 124.347 235.204L124.366 235.154L124.384 235.104C126.301 229.777 128.425 224.679 130.753 219.806C133.395 214.523 135.578 210.266 137.311 207.016C139.77 202.543 141.832 198.545 143.474 195.041C145.01 192.164 146.716 189.03 148.593 185.637C150.951 185.474 153.105 185.396 155.061 185.396H162.108C171.154 185.396 179.266 185.617 186.453 186.052L186.467 186.053C194.283 186.513 203.735 186.738 214.793 186.738C220.425 186.738 225.489 184.726 229.631 180.93L229.641 180.921L229.651 180.911C232.971 177.847 235.77 174.477 237.495 170.751C238.201 169.326 239.289 166.899 239.289 164.255C239.289 162.678 238.889 160.016 236.679 157.805C234.468 155.594 231.806 155.195 230.229 155.195C228.673 155.195 227.455 155.655 227.174 155.761L227.149 155.77C226.67 155.95 226.251 156.149 225.956 156.297C225.458 156.545 224.931 156.841 224.41 157.148C223.537 157.54 221.756 158.111 218.677 158.688L218.63 158.697L218.582 158.707C215.565 159.31 212.558 159.711 209.559 159.91L209.54 159.912L209.521 159.913C206.601 160.122 204.185 160.341 202.372 160.581C195.72 160.785 187.962 160.783 179.083 160.566C173.459 160.426 168.05 160.329 162.855 160.276C167.612 152.054 172.492 143.524 177.494 134.686C184.267 122.891 191.237 111.998 198.4 101.999C199.454 100.731 202.586 98.7354 210.683 98.1261C213.634 97.9157 216.457 97.8121 219.155 97.8121H219.442L219.729 97.7916C222.685 97.5805 225.513 97.4765 228.215 97.4765C235.984 97.4765 240.913 98.0302 243.588 98.7868C245.692 99.5158 246.277 100.391 246.577 101.139L246.701 101.45L246.851 101.749C247.779 103.606 248.35 105.921 248.35 108.886C248.35 112.682 247.876 116.5 246.912 120.355L246.886 120.458L246.863 120.562C246.645 121.544 246.429 122.966 246.629 124.566C246.84 126.255 247.595 128.602 249.736 130.437C251.84 132.24 254.21 132.628 255.795 132.628C257.336 132.628 258.676 132.278 259.621 131.963L259.99 131.84L260.345 131.682C263.85 130.124 266.772 127.575 268.591 123.994C270.617 120.166 272.748 116.016 274.984 111.546C277.759 106.23 279.558 100.797 279.558 95.4631C279.558 90.2491 277.457 85.6906 273.681 82.2262C269.423 78.0988 263.065 76.9391 257.27 76.6863C252.159 76.2279 246.948 76 241.638 76H226.537C214.826 76 203.005 76.2247 191.075 76.674C179.294 76.8958 167.513 77.0067 155.732 77.0067C150.827 77.0067 145.302 77.238 139.176 77.6891C132.63 77.9426 126.196 78.9138 119.884 80.6022C113.099 82.1883 107.099 85.0301 102.181 89.3367C96.2542 94.2754 93.6516 101.193 93.6516 108.886C93.6516 111.894 94.0977 114.999 94.8823 118.156C95.8806 122.414 98.2639 127.017 101.329 131.731L101.381 131.811L101.434 131.89C104.382 136.199 107.745 140.321 111.552 142.436L112.207 142.8L112.917 143.036C116.076 144.089 119.111 143.464 121.462 142.066C122.249 141.643 123.252 141.011 124.179 140.084C125.28 138.983 126.873 136.831 126.873 133.718C126.873 133.083 126.836 131.408 125.939 129.613C125.433 128.602 124.555 127.359 123.098 126.388C122.868 126.235 122.635 126.096 122.4 125.97C121.795 125.48 121.168 124.537 121.168 121.973C121.168 120.871 121.349 119.717 121.762 118.48C122.31 116.834 122.948 115.176 123.679 113.507C125.107 111.063 127.63 108.766 132.025 106.907L132.091 106.879L132.157 106.849C137.461 104.492 143.466 102.772 150.227 101.748L150.324 101.733L150.42 101.716C154.753 100.952 158.998 100.34 163.157 99.8792C162.769 100.418 162.398 100.962 162.045 101.511L162.03 101.534L162.015 101.557C157.7 108.37 153.391 115.515 149.088 122.988C144.836 130.373 141.345 136.566 138.624 141.553C129.928 156.938 121.12 172.324 112.2 187.71C103.228 202.963 94.48 218.328 85.9556 233.806C82.0817 240.598 79.5576 247.385 79.5576 253.852C79.5576 261.24 83.0843 267.227 89.1886 271.182C94.7507 274.786 102.193 276.575 110.595 277.3C117.92 278.21 125.35 278.781 132.883 279.013C140.381 279.465 147.774 279.691 155.061 279.691C168.008 279.691 179.902 279.125 190.728 277.977C201.267 277.078 209.507 275.915 214.992 274.348L215.079 274.323L215.166 274.296C223.715 271.643 231.423 265.45 238.444 256.977L238.479 256.935L238.514 256.891C244.991 248.851 251.692 240.587 258.617 232.098L258.862 231.797L259.078 231.474C261.088 228.458 261.078 225.205 260.636 222.878C260.439 221.746 260.017 220.005 258.91 218.345C257.539 216.288 254.968 214.255 251.37 214.255C248.837 214.255 247.052 215.396 246.483 215.775C245.699 216.298 245.081 216.872 244.668 217.285L244.33 217.623L244.035 217.998C236.39 227.709 227.469 235.384 217.259 241.106C207.045 246.732 195.968 250.816 183.993 253.343C172.033 255.688 159.851 256.866 147.44 256.872ZM153.719 160.228C153.618 160.228 153.631 160.22 153.732 160.228C153.727 160.228 153.723 160.228 153.719 160.228Z" fill="#DD2E2E"/>
</svg>
